<?xml version="1.0" encoding="UTF-8" standalone="no"?>
<!-- Generator: Adobe Illustrator 18.0.0, SVG Export Plug-In . SVG Version: 6.00 Build 0)  -->

<svg
   xmlns:osb="http://www.openswatchbook.org/uri/2009/osb"
   xmlns:dc="http://purl.org/dc/elements/1.1/"
   xmlns:cc="http://creativecommons.org/ns#"
   xmlns:rdf="http://www.w3.org/1999/02/22-rdf-syntax-ns#"
   xmlns:svg="http://www.w3.org/2000/svg"
   xmlns="http://www.w3.org/2000/svg"
   xmlns:xlink="http://www.w3.org/1999/xlink"
   xmlns:sodipodi="http://sodipodi.sourceforge.net/DTD/sodipodi-0.dtd"
   xmlns:inkscape="http://www.inkscape.org/namespaces/inkscape"
   version="1.1"
   id="Layer_1"
   x="0px"
   y="0px"
   width="200px"
   height="40px"
   viewBox="0 0 200 40"
   enable-background="new 0 0 200 40"
   xml:space="preserve"
   sodipodi:docname="cd-nav-icons1.svg"
   inkscape:version="0.92.1 r15371"><metadata
     id="metadata3727"><rdf:RDF><cc:Work
         rdf:about=""><dc:format>image/svg+xml</dc:format><dc:type
           rdf:resource="http://purl.org/dc/dcmitype/StillImage" /></cc:Work></rdf:RDF></metadata><defs
     id="defs3725"><linearGradient
       id="linearGradient4654"
       osb:paint="solid"><stop
         style="stop-color:#00ff08;stop-opacity:1;"
         offset="0"
         id="stop4652" /></linearGradient><linearGradient
       inkscape:collect="always"
       xlink:href="#linearGradient4654"
       id="linearGradient4656"
       x1="5.09273"
       y1="20.011332"
       x2="34.90727"
       y2="20.011332"
       gradientUnits="userSpaceOnUse" /></defs><sodipodi:namedview
     pagecolor="#ffffff"
     bordercolor="#666666"
     borderopacity="1"
     objecttolerance="10"
     gridtolerance="10"
     guidetolerance="10"
     inkscape:pageopacity="0"
     inkscape:pageshadow="2"
     inkscape:window-width="1920"
     inkscape:window-height="1017"
     id="namedview3723"
     showgrid="false"
     inkscape:zoom="8.825"
     inkscape:cx="81.586402"
     inkscape:cy="20"
     inkscape:window-x="-8"
     inkscape:window-y="-8"
     inkscape:window-maximized="1"
     inkscape:current-layer="Layer_1" /><g
     id="g3682"><rect
       x="9"
       y="14"
       fill="#F84644"
       width="22"
       height="2"
       id="rect3680" /></g><path
     fill="#464C50"
     d="M33,9v22H7V9H33 M35,7H5v26h30V7L35,7z"
     id="path3684" /><path
     fill="#F84644"
     d="M57,17L54,25l8-3.1l3.1-8L57,17z"
     id="path3686" /><g
     id="g3692"><g
       id="g3690"><path
         fill="#464C50"
         d="M113,8v17H93h-0.7l-0.5,0.4L86,29.9V27V8H113 M115,6H84v21v7l9-7h22V6L115,6z"
         id="path3688" /></g></g><g
     id="g3696"><rect
       x="93"
       y="15"
       fill="#F84644"
       width="13"
       height="2"
       id="rect3694" /></g><path
     fill="#464C50"
     d="M153,10v21h-26V10H153 M155,8h-30v25h30V8L155,8z"
     id="path3698" /><rect
     x="131"
     y="5"
     fill="#464C50"
     width="3"
     height="4.9"
     id="rect3700" /><rect
     x="146"
     y="5"
     fill="#464C50"
     width="3"
     height="4.9"
     id="rect3702" /><g
     id="g3706"><rect
       x="173.1"
       y="21"
       fill="#F84644"
       width="2"
       height="6"
       id="rect3704" /></g><g
     id="g3710"><rect
       x="179"
       y="18"
       fill="#F84644"
       width="2"
       height="9"
       id="rect3708" /></g><g
     id="g3714"><rect
       x="185.1"
       y="15"
       fill="#F84644"
       width="2"
       height="12"
       id="rect3712" /></g><path
     fill="#464C50"
     d="M192.1,9v22h-24V9H192.1 M194.1,7h-28v26h28V7L194.1,7z"
     id="path3716" /><circle
     fill="none"
     stroke="#464C50"
     stroke-width="2"
     stroke-miterlimit="10"
     cx="59.5"
     cy="19.5"
     r="13.5"
     id="circle3718" /><polygon
     fill="#F84644"
     points="147.2,16.1 145.8,14.7 138,22.5 134.2,18.7 132.8,20.1 138,25.3 138,25.3 138,25.3 "
     id="polygon3720" /><path
     style="opacity:1;vector-effect:none;fill:#ff00ff;fill-opacity:1;stroke:#ad7fd3;stroke-width:0.01284016;stroke-linecap:butt;stroke-linejoin:miter;stroke-miterlimit:4;stroke-dasharray:none;stroke-dashoffset:0;stroke-opacity:0"
     d="M 5.0424929,20.011331 V 7.0368272 H 20 34.957507 V 20.011331 32.985836 H 20 5.0424929 Z m 27.9886681,0 V 8.9631728 H 20 6.9688385 V 20.011331 31.05949 H 20 33.031161 Z"
     id="path3839"
     inkscape:connector-curvature="0" /><path
     style="opacity:1;vector-effect:none;fill:#ffb380;fill-opacity:1;stroke:#00ff2e;stroke-width:0.01284016;stroke-linecap:butt;stroke-linejoin:miter;stroke-miterlimit:4;stroke-dasharray:none;stroke-dashoffset:0;stroke-opacity:1"
     d="M 5.0991501,20.011331 V 7.0368272 H 20 34.90085 V 20.011331 32.985836 H 20 5.0991501 Z m 27.9886689,0 V 8.9631728 H 20 6.9121813 V 20.011331 31.05949 H 20 33.087819 Z"
     id="path4646"
     inkscape:connector-curvature="0" /><path
     style="opacity:1;vector-effect:none;fill:#ffb380;fill-opacity:1;stroke:#ff6600;stroke-width:0.01284016;stroke-linecap:butt;stroke-linejoin:miter;stroke-miterlimit:4;stroke-dasharray:none;stroke-dashoffset:0;stroke-opacity:1"
     d="M 5.0991501,20.011331 V 7.0368272 H 20 34.90085 V 20.011331 32.985836 H 20 5.0991501 Z M 33.060051,19.983003 33.088941,8.9631728 H 20.000561 6.9121813 V 19.935788 c 0,6.034939 0.034209,11.006825 0.076019,11.048635 0.04181,0.04181 5.9185807,0.06306 13.0594907,0.04721 l 12.98347,-0.0288 z"
     id="path4648"
     inkscape:connector-curvature="0" /><path
     style="opacity:1;vector-effect:none;fill:#ffb380;fill-opacity:1;stroke:url(#linearGradient4656);stroke-width:0.01284016;stroke-linecap:butt;stroke-linejoin:miter;stroke-miterlimit:4;stroke-dasharray:none;stroke-dashoffset:0;stroke-opacity:1"
     d="M 5.0991501,20.011331 V 7.0368272 H 20 34.90085 V 20.011331 32.985836 H 20 5.0991501 Z m 27.9141289,8.990334 c 0.041,-1.131804 0.07454,-6.103476 0.07454,-11.048159 V 8.9631728 H 20 6.9121813 V 19.485601 c 0,5.787335 0.032427,10.759006 0.072059,11.048159 l 0.072059,0.52573 H 19.99752 32.93874 Z"
     id="path4650"
     inkscape:connector-curvature="0" /><path
     style="opacity:1;vector-effect:none;fill:#ad7fd3;fill-opacity:0;stroke:#ad7fd3;stroke-width:0.01284016;stroke-linecap:butt;stroke-linejoin:miter;stroke-miterlimit:4;stroke-dasharray:none;stroke-dashoffset:0;stroke-opacity:1"
     d="M 4.9858357,20.011331 V 7.0368272 H 20 35.014164 V 20.011331 32.985836 H 20 4.9858357 Z m 28.0267433,4.060642 c 0.04138,-3.843136 0.07524,-8.814807 0.07524,-11.048159 V 8.9631728 H 20 6.9121813 l 2.833e-4,8.5835692 c 1.473e-4,4.720963 0.033769,9.692635 0.074703,11.048159 l 0.074425,2.464589 H 19.999469 32.937345 l 0.07524,-6.987517 z"
     id="path4658"
     inkscape:connector-curvature="0" /><path
     style="opacity:1;vector-effect:none;fill:#ffb380;fill-opacity:1;stroke:#ff6600;stroke-width:0.01284016;stroke-linecap:butt;stroke-linejoin:miter;stroke-miterlimit:4;stroke-dasharray:none;stroke-dashoffset:0;stroke-opacity:1"
     d="M 4.9858357,20.011331 V 7.0368272 H 20 35.014164 V 20.011331 32.985836 H 20 4.9858357 Z M 33.030937,20.115849 C 33.082655,13.426861 33.07473,9.1313872 33.010551,9.0672085 32.946979,9.0036361 27.78884,8.9735753 19.937194,8.9910189 L 6.9688385,9.01983 6.9331365,14.345609 c -0.019636,2.929179 -8.272e-4,7.888102 0.041796,11.01983 l 0.077498,5.694051 H 19.999377 32.946322 Z"
     id="path4668"
     inkscape:connector-curvature="0" /><path
     style="opacity:1;vector-effect:none;fill:#af6be7;fill-opacity:0;stroke:#ff6f00;stroke-width:0.013;stroke-linecap:butt;stroke-linejoin:miter;stroke-miterlimit:4;stroke-dasharray:none;stroke-dashoffset:0;stroke-opacity:1;fill-rule:evenodd"
     d="m 56.713881,33.667908 c -5.181789,-1.043345 -9.408774,-4.831702 -10.980612,-9.841173 -0.647519,-2.063653 -0.820057,-4.676029 -0.450807,-6.825629 0.194678,-1.133318 0.779905,-2.947929 1.256489,-3.895985 2.048415,-4.0748597 5.795854,-6.9135552 10.272328,-7.7813195 1.402331,-0.2718416 3.782316,-0.2944004 5.181947,-0.049117 5.943908,1.0416606 10.681608,5.7834965 11.728007,11.7382445 0.243803,1.38741 0.243803,3.589565 0,4.976975 -1.044447,5.943634 -5.784019,10.691721 -11.706698,11.727728 -1.377132,0.24089 -3.978509,0.216487 -5.300654,-0.04972 z m 5.243821,-1.867749 c 2.418615,-0.512575 4.397507,-1.537425 6.134358,-3.17693 5.256075,-4.961484 5.256158,-13.276309 2.27e-4,-18.244549 -4.934074,-4.6639167 -12.639286,-4.5444623 -17.454344,0.270595 -4.282395,4.282395 -4.894401,10.95172 -1.466233,15.978255 1.974947,2.895758 5.177413,4.827771 8.845287,5.336267 0.935544,0.129699 2.951597,0.04598 3.940705,-0.163638 z"
     id="path4670"
     inkscape:connector-curvature="0" /><path
     style="opacity:1;vector-effect:none;fill:#681c00;fill-opacity:0;stroke:#ff6600;stroke-width:0.01284016;stroke-linecap:butt;stroke-linejoin:miter;stroke-miterlimit:4;stroke-dasharray:none;stroke-dashoffset:0;stroke-opacity:1"
     d="M 4.9858357,20.011331 V 7.0368272 H 20 35.014164 V 20.011331 32.985836 H 20 4.9858357 Z m 28.0047953,0.934845 c 0.02229,-5.562323 0.0239,-10.533995 0.0036,-11.048159 L 32.957248,8.9631728 H 20.008138 7.0590289 l -0.080765,2.3263612 c -0.044421,1.279499 -0.044029,6.25117 8.725e-4,11.048159 l 0.081636,8.721797 H 20.005436 32.9501 Z"
     id="path4672"
     inkscape:connector-curvature="0" /><path
     style="opacity:1;vector-effect:none;fill:#ad7fd3;fill-opacity:1;stroke:#ff6600;stroke-width:0.01284016;stroke-linecap:butt;stroke-linejoin:miter;stroke-miterlimit:4;stroke-dasharray:none;stroke-dashoffset:0;stroke-opacity:1"
     d="M 4.9858357,20.011331 V 7.0368272 H 20 35.014164 V 20.011331 32.985836 H 20 4.9858357 Z m 27.9886683,0 V 8.9631728 H 20.018048 7.0615914 L 6.99141,12.031228 c -0.068901,3.012079 0.010857,18.608798 0.096582,18.886619 0.03463,0.112231 2.7268388,0.141643 12.965109,0.141643 h 12.921403 z"
     id="path4674"
     inkscape:connector-curvature="0" /><path
     style="opacity:1;vector-effect:none;fill:#ad7fd3;fill-opacity:1;stroke:#ff6600;stroke-width:0.01284016;stroke-linecap:butt;stroke-linejoin:miter;stroke-miterlimit:4;stroke-dasharray:none;stroke-dashoffset:0;stroke-opacity:1"
     d="M 56.713881,33.667908 C 53.018058,32.92376 49.628981,30.687033 47.599096,27.652324 46.709551,26.32244 46.349337,25.607293 45.857935,24.195531 44.878732,21.382354 44.832859,17.91103 45.738252,15.13881 47.473241,9.826451 51.764894,6.1477659 57.316185,5.2145296 c 1.011438,-0.1700345 3.58194,-0.1333428 4.722979,0.067417 4.381246,0.7708555 8.314888,3.6890476 10.308259,7.6472314 1.111386,2.20685 1.557121,4.088192 1.557121,6.572238 0,3.052933 -0.752622,5.527889 -2.463771,8.101983 -2.092914,3.148383 -5.645851,5.45296 -9.426238,6.114233 -1.377132,0.24089 -3.978509,0.216488 -5.300654,-0.04972 z m 4.135977,-1.700915 C 68.607445,31.077266 73.696862,23.491191 71.549537,16.018496 70.541547,12.510692 67.9252,9.5148763 64.576137,8.033692 57.871854,5.0686004 50.062804,8.4756636 47.641782,15.422096 c -0.630786,1.809861 -0.850234,4.476814 -0.512407,6.227289 0.321073,1.663664 1.100136,3.594979 1.964773,4.870717 2.593519,3.826636 7.214513,5.967727 11.75571,5.446891 z"
     id="path4676"
     inkscape:connector-curvature="0" /><path
     style="opacity:1;vector-effect:none;fill:#ffb380;fill-opacity:1;stroke:#ff6600;stroke-width:0.01284016;stroke-linecap:butt;stroke-linejoin:miter;stroke-miterlimit:4;stroke-dasharray:none;stroke-dashoffset:0;stroke-opacity:1"
     d="m 92.719547,7.9716884 c 3.723796,-0.016571 9.817283,-0.016571 13.541073,0 3.7238,0.016571 0.67706,0.030129 -6.770535,0.030129 -7.447592,0 -10.494334,-0.013558 -6.770538,-0.030129 z"
     id="path4678"
     inkscape:connector-curvature="0" /><path
     style="opacity:1;vector-effect:none;fill:#ad7fd3;fill-opacity:1;stroke:#ff6600;stroke-width:0.01284016;stroke-linecap:butt;stroke-linejoin:miter;stroke-miterlimit:4;stroke-dasharray:none;stroke-dashoffset:0;stroke-opacity:1"
     d="M 84.07932,19.898017 V 6.0169972 H 99.490085 114.90085 V 16.498584 26.98017 H 103.92121 92.941564 l -4.369434,3.399433 c -2.403189,1.869689 -4.397194,3.399434 -4.431122,3.399434 -0.03393,0 -0.06169,-6.246459 -0.06169,-13.88102 z m 5.22869,7.496859 3.019057,-2.341052 h 10.380373 10.38038 V 16.498125 7.9424254 L 99.518414,7.9712127 85.949008,8 85.919788,18.82153 c -0.01607,5.951841 -0.0027,10.891012 0.02967,10.975934 0.03952,0.103631 0.105027,0.1189 0.199192,0.04643 0.07717,-0.05938 1.498878,-1.161443 3.15936,-2.449023 z"
     id="path4680"
     inkscape:connector-curvature="0" /><path
     style="opacity:1;vector-effect:none;fill:#ad7fd3;fill-opacity:1;stroke:#ff6600;stroke-width:0.01284016;stroke-linecap:butt;stroke-linejoin:miter;stroke-miterlimit:4;stroke-dasharray:none;stroke-dashoffset:0;stroke-opacity:1"
     d="M 125.09915,20.523127 V 8.0604201 L 128.07365,8.03021 131.04816,8 l 0.0316,-1.5014164 0.0316,-1.5014165 h 1.41315 1.41314 v 1.5297451 1.529745 H 140 146.06232 V 6.5269122 4.9971671 h 1.41314 1.41315 l 0.0316,1.5014165 L 148.95184,8 l 2.97451,0.03021 2.9745,0.03021 V 20.523127 32.985836 H 140 125.09915 Z m 27.98867,-0.0019 V 9.9830028 H 140 126.91218 V 20.521246 31.05949 H 140 153.08782 Z"
     id="path4682"
     inkscape:connector-curvature="0" /><path
     style="opacity:1;vector-effect:none;fill:#ffffff;fill-opacity:1;stroke:#ff6600;stroke-width:0.01284016;stroke-linecap:butt;stroke-linejoin:miter;stroke-miterlimit:4;stroke-dasharray:none;stroke-dashoffset:0;stroke-opacity:1"
     d="M 9.0651558,15.025496 V 14.062323 H 20 30.934844 v 0.963173 0.963173 H 20 9.0651558 Z"
     id="path4684"
     inkscape:connector-curvature="0" /><path
     style="opacity:1;vector-effect:none;fill:#ffffff;fill-opacity:1;stroke:#ff6600;stroke-width:0.01284016;stroke-linecap:butt;stroke-linejoin:miter;stroke-miterlimit:4;stroke-dasharray:none;stroke-dashoffset:0;stroke-opacity:1"
     d="m 54.184372,24.698629 c 0.02989,-0.0851 0.684859,-1.843448 1.455483,-3.907449 l 1.401133,-3.752729 3.903095,-1.491292 c 2.146703,-0.820211 3.925099,-1.46929 3.951992,-1.442397 0.04175,0.04175 -2.856141,7.643784 -2.949327,7.73697 -0.04315,0.04315 -7.187106,2.813932 -7.544626,2.926184 -0.205277,0.06445 -0.258752,0.04744 -0.21775,-0.06929 z"
     id="path4686"
     inkscape:connector-curvature="0" /><path
     style="opacity:1;vector-effect:none;fill:#ffb380;fill-opacity:1;stroke:#ff6600;stroke-width:0.01284016;stroke-linecap:butt;stroke-linejoin:miter;stroke-miterlimit:4;stroke-dasharray:none;stroke-dashoffset:0;stroke-opacity:1"
     d="m 93.031161,15.988669 v -0.906516 h 6.458924 6.458925 v 0.906516 0.906515 h -6.458925 -6.458924 z"
     id="path4688"
     inkscape:connector-curvature="0" /><path
     style="opacity:1;vector-effect:none;fill:#ffffff;fill-opacity:1;stroke:#ff6600;stroke-width:0.01284016;stroke-linecap:butt;stroke-linejoin:miter;stroke-miterlimit:4;stroke-dasharray:none;stroke-dashoffset:0;stroke-opacity:1"
     d="m 93.031161,15.988669 v -0.906516 h 6.458924 6.458925 v 0.906516 0.906515 h -6.458925 -6.458924 z"
     id="path4694"
     inkscape:connector-curvature="0" /><path
     style="opacity:1;vector-effect:none;fill:#ffffff;fill-opacity:1;stroke:#ff6600;stroke-width:0.01284016;stroke-linecap:butt;stroke-linejoin:miter;stroke-miterlimit:4;stroke-dasharray:none;stroke-dashoffset:0;stroke-opacity:1"
     d="m 135.41091,22.617707 -2.54754,-2.549431 0.65046,-0.650461 0.65046,-0.650461 1.92377,1.921275 1.92377,1.921274 3.85646,-3.848861 c 2.12105,-2.116873 3.89547,-3.862045 3.94317,-3.87816 0.0477,-0.01612 0.36486,0.252347 0.70482,0.596581 l 0.61811,0.625881 -4.52984,4.530897 c -2.49141,2.491994 -4.55599,4.530898 -4.58797,4.530898 -0.032,0 -1.20452,-1.147244 -2.60567,-2.549432 z"
     id="path4696"
     inkscape:connector-curvature="0" /></svg>